<svg xmlns="http://www.w3.org/2000/svg" xmlns:xlink="http://www.w3.org/1999/xlink" id="Layer_1" version="1.1" viewBox="0 0 550 100">
  <!-- Generator: Adobe Illustrator 29.7.1, SVG Export Plug-In . SVG Version: 2.1.1 Build 8)  -->
  <defs>
    <style>
      .st0 {
        fill: url(#linear-gradient);
      }

      .st1 {
        fill: #1d2939;
      }
    </style>
    <linearGradient id="linear-gradient" x1="279.23" y1="28.89" x2="279.23" y2="53.81" gradientUnits="userSpaceOnUse">
      <stop offset="0" stop-color="#fff"/>
      <stop offset="1" stop-color="#fff" stop-opacity="0"/>
    </linearGradient>
  </defs>
  <g>
    <path class="st1" d="M111.32,78.28c-.61.68-1.26,1.35-1.94,2h379.54c-.33-.65-.63-1.32-.88-2H111.32Z"/>
    <path class="st1" d="M19.76,78.28l-.76,2h49.68c-.33-.65-.63-1.32-.88-2H19.76Z"/>
    <path class="st1" d="M232.1,66.63c7.65-6.05,12.6-13.36,14.85-21.92,2.25-8.56,1.15-15.87-3.31-21.92-4.46-6.05-10.97-9.08-19.53-9.08h-26.57l-16.33,62h26.57c8.56,0,16.67-3.03,24.31-9.08ZM207.98,27.88h12.4c4.66,0,8.21,1.64,10.62,4.92,2.41,3.28,3.01,7.25,1.78,11.91-1.23,4.67-3.91,8.64-8.05,11.91-4.14,3.28-8.54,4.92-13.21,4.92h-12.4l8.86-33.66Z"/>
    <path class="st1" d="M268.9,75.71c8.56,0,16.67-3.03,24.31-9.08,7.65-6.05,12.6-13.36,14.85-21.92,2.25-8.56,1.15-15.87-3.31-21.92-4.46-6.05-10.97-9.08-19.53-9.08h-26.57l-16.33,62h26.57ZM269.09,27.88h12.4c4.66,0,8.21,1.64,10.62,4.92,2.41,3.28,3.01,7.25,1.78,11.91-1.23,4.67-3.91,8.64-8.05,11.91-4.14,3.28-8.54,4.92-13.21,4.92h-12.4l8.86-33.66Z"/>
    <polygon class="st1" points="356.59 75.71 360.32 61.54 321.35 61.54 323.91 51.8 354.03 51.8 357.76 37.62 327.64 37.62 330.21 27.88 369.18 27.88 372.92 13.71 319.77 13.71 303.44 75.71 356.59 75.71"/>
    <polygon class="st1" points="374.3 75.71 378.96 58.04 387.83 50.9 399.99 75.71 417.73 75.71 400.55 40.65 434 13.71 414.55 13.71 384.19 38.16 390.63 13.71 376.46 13.71 360.13 75.71 374.3 75.71"/>
    <path class="st1" d="M435.42,75.71l6.3-23.92h29.23l-1.56,5.93h-.14l-4.74,17.99h.14s14.17,0,14.17,0h0s8.49,0,8.49,0c-.7-3.3-.55-6.92.49-10.87.3-1.13.67-2.22,1.08-3.3h-6.33l12.6-47.83h-14.17l-6.3,23.92h-29.23l6.3-23.92h-14.17l-16.33,62h14.17Z"/>
    <path class="st1" d="M116.82,64.84c1.72-6.55.88-12.14-2.53-16.77-3.41-4.63-8.39-6.95-14.94-6.95s-12.75,2.31-18.6,6.95c-5.85,4.63-9.64,10.22-11.36,16.77s-.88,12.14,2.53,16.77c3.41,4.63,8.39,6.95,14.94,6.95s12.75-2.31,18.6-6.95c5.85-4.63,9.64-10.22,11.36-16.77ZM105.98,64.84c-.94,3.57-2.99,6.61-6.16,9.11s-6.54,3.76-10.11,3.76-6.22-1.25-8.09-3.76c-1.87-2.51-2.33-5.54-1.39-9.11.94-3.57,3-6.61,6.2-9.11,3.19-2.51,6.55-3.76,10.07-3.76s6.28,1.25,8.12,3.76c1.85,2.51,2.3,5.55,1.36,9.11Z"/>
    <path class="st1" d="M94.55,59.34c-1.51,0-2.94.54-4.3,1.61-1.36,1.07-2.25,2.37-2.65,3.89-.4,1.52-.2,2.82.6,3.89.8,1.07,1.95,1.61,3.46,1.61s2.96-.54,4.32-1.61c1.35-1.07,2.23-2.37,2.63-3.89.4-1.52.21-2.82-.58-3.89s-1.95-1.61-3.47-1.61Z"/>
    <path class="st1" d="M534.54,48.07c-3.41-4.63-8.39-6.95-14.94-6.95s-12.75,2.31-18.6,6.95c-5.85,4.63-9.64,10.22-11.36,16.77s-.88,12.14,2.53,16.77c3.41,4.63,8.39,6.95,14.94,6.95s12.75-2.31,18.6-6.95c5.85-4.63,9.64-10.22,11.36-16.77s.88-12.14-2.53-16.77ZM526.23,64.84c-.94,3.57-2.99,6.61-6.16,9.11s-6.54,3.76-10.11,3.76-6.22-1.25-8.09-3.76c-1.87-2.51-2.33-5.54-1.4-9.11.94-3.57,3-6.61,6.2-9.11,3.19-2.51,6.55-3.76,10.07-3.76s6.28,1.25,8.12,3.76c1.85,2.51,2.3,5.55,1.36,9.11Z"/>
    <path class="st1" d="M514.8,59.34c-1.51,0-2.94.54-4.3,1.61-1.36,1.07-2.25,2.37-2.65,3.89-.4,1.52-.2,2.82.6,3.89.8,1.07,1.95,1.61,3.46,1.61s2.96-.54,4.32-1.61c1.35-1.07,2.23-2.37,2.63-3.89.4-1.52.21-2.82-.58-3.89-.79-1.07-1.95-1.61-3.47-1.61Z"/>
    <path class="st1" d="M127.14,75.71l27.62-39.12,4.48,24.95h-18.57l-9.32,14.17h46.33l-11.13-62h-11.52l-33.77,47.83h-1.95c-.16,1.08-.36,2.17-.65,3.3-1.04,3.95-2.81,7.57-5.24,10.87h13.72Z"/>
    <polygon class="st1" points="49.76 61.54 38.43 61.54 53.89 2.86 39.71 2.86 20.53 75.71 43.36 75.71 49.76 61.54"/>
    <polygon class="st1" points="45.68 75.71 52.23 75.71 58.62 61.54 52.08 61.54 45.68 75.71"/>
    <path class="st1" d="M67.06,75.71c-.7-3.3-.55-6.92.49-10.87.3-1.13.67-2.22,1.08-3.3h-7.33l-6.39,14.17h12.15Z"/>
  </g>
  <path class="st0" d="M38.43,61.54l3.99-15.16h-14.17l-7.72,29.33h22.83l6.39-14.17h-11.32ZM114.29,48.07c-.44-.6-.92-1.16-1.41-1.69h-29.83c-.77.52-1.54,1.08-2.3,1.69-5.85,4.63-9.64,10.22-11.36,16.77-1.15,4.36-1.13,8.29,0,11.8l15.47.03c-1.26-.63-2.34-1.52-3.23-2.72-1.87-2.51-2.33-5.54-1.39-9.11.94-3.57,3-6.61,6.2-9.12,3.19-2.51,6.55-3.76,10.07-3.76s6.28,1.25,8.12,3.76c1.85,2.51,2.3,5.55,1.36,9.12-.94,3.57-2.99,6.61-6.16,9.11-1.52,1.21-3.09,2.11-4.71,2.74l15.42.03c3.02-3.53,5.13-7.49,6.29-11.89,1.72-6.55.88-12.14-2.53-16.77ZM52.08,61.54l-6.39,14.17h6.54l6.39-14.17h-6.54ZM68.63,61.54h-7.33l-6.39,14.17h12.15c-.7-3.3-.55-6.92.49-10.87.3-1.13.67-2.22,1.08-3.3ZM534.54,48.07c-.44-.6-.92-1.16-1.41-1.69h-29.83c-.77.52-1.54,1.08-2.3,1.69-5.85,4.63-9.64,10.22-11.36,16.77-1.25,4.75-1.13,8.99.32,12.73l18.41.04c-2.75-.33-4.92-1.55-6.49-3.66-1.87-2.51-2.33-5.54-1.39-9.11.94-3.57,3-6.61,6.2-9.12,3.19-2.51,6.55-3.76,10.07-3.76s6.28,1.25,8.12,3.76c1.85,2.51,2.3,5.55,1.36,9.12-.94,3.57-2.99,6.61-6.16,9.11-2.68,2.12-5.51,3.34-8.48,3.66l18.39.04c3.46-3.76,5.84-8.03,7.1-12.82,1.72-6.55.88-12.14-2.53-16.77ZM516.22,68.73c1.35-1.07,2.23-2.37,2.63-3.89.4-1.52.21-2.82-.58-3.89-.79-1.07-1.95-1.61-3.47-1.61s-2.94.54-4.3,1.61c-1.36,1.07-2.25,2.37-2.65,3.89-.4,1.52-.2,2.82.6,3.89.8,1.07,1.95,1.61,3.46,1.61s2.96-.54,4.32-1.61ZM98.6,64.84c.4-1.52.21-2.82-.58-3.89-.79-1.07-1.95-1.61-3.47-1.61s-2.94.54-4.3,1.61c-1.36,1.07-2.25,2.37-2.65,3.89-.4,1.52-.2,2.82.6,3.89.8,1.07,1.95,1.61,3.46,1.61s2.96-.54,4.32-1.61c1.35-1.07,2.23-2.37,2.63-3.89ZM232.26,46.38c-1.39,3.95-3.9,7.36-7.54,10.24-4.14,3.28-8.54,4.92-13.21,4.92h-12.4l3.99-15.16h-14.17l-7.72,29.33h26.57c8.56,0,16.67-3.03,24.31-9.08,7.14-5.65,11.9-12.41,14.34-20.25h-14.17ZM321.35,61.54l2.57-9.74h30.12l1.43-5.42h-44.29l-7.72,29.33h53.15l3.73-14.17h-38.97ZM293.38,46.38c-1.39,3.95-3.9,7.36-7.54,10.24-4.14,3.28-8.54,4.92-13.21,4.92h-12.4l3.99-15.16h-14.17l-7.72,29.33h26.57c8.56,0,16.67-3.03,24.31-9.08,7.14-5.65,11.9-12.41,14.34-20.25h-14.17ZM131.96,46.38l-10.7,15.16h-1.95c-.16,1.08-.36,2.17-.65,3.3-1.04,3.95-2.81,7.57-5.24,10.87h13.72l20.71-29.33h-15.89ZM156.51,46.38l2.72,15.16h-18.57l-9.32,14.17h46.33l-5.26-29.33h-15.89ZM367.85,46.38l-7.72,29.33h14.17l4.65-17.67,8.87-7.15,12.16,24.81h17.74l-14.38-29.33h-35.5ZM488.88,61.54h-6.33l3.99-15.16h-57.57l-7.72,29.33h14.17l6.3-23.92h29.23l-1.56,5.93h-.14l-4.74,17.99h.14s14.17,0,14.17,0h0s8.49,0,8.49,0c-.7-3.3-.55-6.92.49-10.87.3-1.13.67-2.22,1.08-3.3Z"/>
</svg>